G75*
%MOIN*%
%OFA0B0*%
%FSLAX25Y25*%
%IPPOS*%
%LPD*%
%AMOC8*
5,1,8,0,0,1.08239X$1,22.5*
%
%ADD10C,0.00000*%
%ADD11R,0.01378X0.03937*%
%ADD12R,0.07098X0.06299*%
D10*
X0002667Y0001256D02*
X0002667Y0226217D01*
X0217667Y0226256D01*
X0217667Y0001256D01*
X0002667Y0001256D01*
X0007667Y0011256D02*
X0007669Y0011397D01*
X0007675Y0011538D01*
X0007685Y0011678D01*
X0007699Y0011818D01*
X0007717Y0011958D01*
X0007738Y0012097D01*
X0007764Y0012236D01*
X0007793Y0012374D01*
X0007827Y0012510D01*
X0007864Y0012646D01*
X0007905Y0012781D01*
X0007950Y0012915D01*
X0007999Y0013047D01*
X0008051Y0013178D01*
X0008107Y0013307D01*
X0008167Y0013434D01*
X0008230Y0013560D01*
X0008296Y0013684D01*
X0008367Y0013807D01*
X0008440Y0013927D01*
X0008517Y0014045D01*
X0008597Y0014161D01*
X0008681Y0014274D01*
X0008767Y0014385D01*
X0008857Y0014494D01*
X0008950Y0014600D01*
X0009045Y0014703D01*
X0009144Y0014804D01*
X0009245Y0014902D01*
X0009349Y0014997D01*
X0009456Y0015089D01*
X0009565Y0015178D01*
X0009677Y0015263D01*
X0009791Y0015346D01*
X0009907Y0015426D01*
X0010026Y0015502D01*
X0010147Y0015574D01*
X0010269Y0015644D01*
X0010394Y0015709D01*
X0010520Y0015772D01*
X0010648Y0015830D01*
X0010778Y0015885D01*
X0010909Y0015937D01*
X0011042Y0015984D01*
X0011176Y0016028D01*
X0011311Y0016069D01*
X0011447Y0016105D01*
X0011584Y0016137D01*
X0011722Y0016166D01*
X0011860Y0016191D01*
X0012000Y0016211D01*
X0012140Y0016228D01*
X0012280Y0016241D01*
X0012421Y0016250D01*
X0012561Y0016255D01*
X0012702Y0016256D01*
X0012843Y0016253D01*
X0012984Y0016246D01*
X0013124Y0016235D01*
X0013264Y0016220D01*
X0013404Y0016201D01*
X0013543Y0016179D01*
X0013681Y0016152D01*
X0013819Y0016122D01*
X0013955Y0016087D01*
X0014091Y0016049D01*
X0014225Y0016007D01*
X0014359Y0015961D01*
X0014491Y0015912D01*
X0014621Y0015858D01*
X0014750Y0015801D01*
X0014877Y0015741D01*
X0015003Y0015677D01*
X0015126Y0015609D01*
X0015248Y0015538D01*
X0015368Y0015464D01*
X0015485Y0015386D01*
X0015600Y0015305D01*
X0015713Y0015221D01*
X0015824Y0015134D01*
X0015932Y0015043D01*
X0016037Y0014950D01*
X0016140Y0014853D01*
X0016240Y0014754D01*
X0016337Y0014652D01*
X0016431Y0014547D01*
X0016522Y0014440D01*
X0016610Y0014330D01*
X0016695Y0014218D01*
X0016777Y0014103D01*
X0016856Y0013986D01*
X0016931Y0013867D01*
X0017003Y0013746D01*
X0017071Y0013623D01*
X0017136Y0013498D01*
X0017198Y0013371D01*
X0017255Y0013242D01*
X0017310Y0013112D01*
X0017360Y0012981D01*
X0017407Y0012848D01*
X0017450Y0012714D01*
X0017489Y0012578D01*
X0017524Y0012442D01*
X0017556Y0012305D01*
X0017583Y0012167D01*
X0017607Y0012028D01*
X0017627Y0011888D01*
X0017643Y0011748D01*
X0017655Y0011608D01*
X0017663Y0011467D01*
X0017667Y0011326D01*
X0017667Y0011186D01*
X0017663Y0011045D01*
X0017655Y0010904D01*
X0017643Y0010764D01*
X0017627Y0010624D01*
X0017607Y0010484D01*
X0017583Y0010345D01*
X0017556Y0010207D01*
X0017524Y0010070D01*
X0017489Y0009934D01*
X0017450Y0009798D01*
X0017407Y0009664D01*
X0017360Y0009531D01*
X0017310Y0009400D01*
X0017255Y0009270D01*
X0017198Y0009141D01*
X0017136Y0009014D01*
X0017071Y0008889D01*
X0017003Y0008766D01*
X0016931Y0008645D01*
X0016856Y0008526D01*
X0016777Y0008409D01*
X0016695Y0008294D01*
X0016610Y0008182D01*
X0016522Y0008072D01*
X0016431Y0007965D01*
X0016337Y0007860D01*
X0016240Y0007758D01*
X0016140Y0007659D01*
X0016037Y0007562D01*
X0015932Y0007469D01*
X0015824Y0007378D01*
X0015713Y0007291D01*
X0015600Y0007207D01*
X0015485Y0007126D01*
X0015368Y0007048D01*
X0015248Y0006974D01*
X0015126Y0006903D01*
X0015003Y0006835D01*
X0014877Y0006771D01*
X0014750Y0006711D01*
X0014621Y0006654D01*
X0014491Y0006600D01*
X0014359Y0006551D01*
X0014225Y0006505D01*
X0014091Y0006463D01*
X0013955Y0006425D01*
X0013819Y0006390D01*
X0013681Y0006360D01*
X0013543Y0006333D01*
X0013404Y0006311D01*
X0013264Y0006292D01*
X0013124Y0006277D01*
X0012984Y0006266D01*
X0012843Y0006259D01*
X0012702Y0006256D01*
X0012561Y0006257D01*
X0012421Y0006262D01*
X0012280Y0006271D01*
X0012140Y0006284D01*
X0012000Y0006301D01*
X0011860Y0006321D01*
X0011722Y0006346D01*
X0011584Y0006375D01*
X0011447Y0006407D01*
X0011311Y0006443D01*
X0011176Y0006484D01*
X0011042Y0006528D01*
X0010909Y0006575D01*
X0010778Y0006627D01*
X0010648Y0006682D01*
X0010520Y0006740D01*
X0010394Y0006803D01*
X0010269Y0006868D01*
X0010147Y0006938D01*
X0010026Y0007010D01*
X0009907Y0007086D01*
X0009791Y0007166D01*
X0009677Y0007249D01*
X0009565Y0007334D01*
X0009456Y0007423D01*
X0009349Y0007515D01*
X0009245Y0007610D01*
X0009144Y0007708D01*
X0009045Y0007809D01*
X0008950Y0007912D01*
X0008857Y0008018D01*
X0008767Y0008127D01*
X0008681Y0008238D01*
X0008597Y0008351D01*
X0008517Y0008467D01*
X0008440Y0008585D01*
X0008367Y0008705D01*
X0008296Y0008828D01*
X0008230Y0008952D01*
X0008167Y0009078D01*
X0008107Y0009205D01*
X0008051Y0009334D01*
X0007999Y0009465D01*
X0007950Y0009597D01*
X0007905Y0009731D01*
X0007864Y0009866D01*
X0007827Y0010002D01*
X0007793Y0010138D01*
X0007764Y0010276D01*
X0007738Y0010415D01*
X0007717Y0010554D01*
X0007699Y0010694D01*
X0007685Y0010834D01*
X0007675Y0010974D01*
X0007669Y0011115D01*
X0007667Y0011256D01*
X0014417Y0051256D02*
X0014419Y0051369D01*
X0014425Y0051483D01*
X0014435Y0051596D01*
X0014449Y0051708D01*
X0014466Y0051820D01*
X0014488Y0051932D01*
X0014514Y0052042D01*
X0014543Y0052152D01*
X0014576Y0052260D01*
X0014613Y0052368D01*
X0014654Y0052473D01*
X0014698Y0052578D01*
X0014746Y0052681D01*
X0014797Y0052782D01*
X0014852Y0052881D01*
X0014911Y0052978D01*
X0014973Y0053073D01*
X0015038Y0053166D01*
X0015106Y0053257D01*
X0015177Y0053345D01*
X0015252Y0053431D01*
X0015329Y0053514D01*
X0015409Y0053594D01*
X0015492Y0053671D01*
X0015578Y0053746D01*
X0015666Y0053817D01*
X0015757Y0053885D01*
X0015850Y0053950D01*
X0015945Y0054012D01*
X0016042Y0054071D01*
X0016141Y0054126D01*
X0016242Y0054177D01*
X0016345Y0054225D01*
X0016450Y0054269D01*
X0016555Y0054310D01*
X0016663Y0054347D01*
X0016771Y0054380D01*
X0016881Y0054409D01*
X0016991Y0054435D01*
X0017103Y0054457D01*
X0017215Y0054474D01*
X0017327Y0054488D01*
X0017440Y0054498D01*
X0017554Y0054504D01*
X0017667Y0054506D01*
X0017780Y0054504D01*
X0017894Y0054498D01*
X0018007Y0054488D01*
X0018119Y0054474D01*
X0018231Y0054457D01*
X0018343Y0054435D01*
X0018453Y0054409D01*
X0018563Y0054380D01*
X0018671Y0054347D01*
X0018779Y0054310D01*
X0018884Y0054269D01*
X0018989Y0054225D01*
X0019092Y0054177D01*
X0019193Y0054126D01*
X0019292Y0054071D01*
X0019389Y0054012D01*
X0019484Y0053950D01*
X0019577Y0053885D01*
X0019668Y0053817D01*
X0019756Y0053746D01*
X0019842Y0053671D01*
X0019925Y0053594D01*
X0020005Y0053514D01*
X0020082Y0053431D01*
X0020157Y0053345D01*
X0020228Y0053257D01*
X0020296Y0053166D01*
X0020361Y0053073D01*
X0020423Y0052978D01*
X0020482Y0052881D01*
X0020537Y0052782D01*
X0020588Y0052681D01*
X0020636Y0052578D01*
X0020680Y0052473D01*
X0020721Y0052368D01*
X0020758Y0052260D01*
X0020791Y0052152D01*
X0020820Y0052042D01*
X0020846Y0051932D01*
X0020868Y0051820D01*
X0020885Y0051708D01*
X0020899Y0051596D01*
X0020909Y0051483D01*
X0020915Y0051369D01*
X0020917Y0051256D01*
X0020915Y0051143D01*
X0020909Y0051029D01*
X0020899Y0050916D01*
X0020885Y0050804D01*
X0020868Y0050692D01*
X0020846Y0050580D01*
X0020820Y0050470D01*
X0020791Y0050360D01*
X0020758Y0050252D01*
X0020721Y0050144D01*
X0020680Y0050039D01*
X0020636Y0049934D01*
X0020588Y0049831D01*
X0020537Y0049730D01*
X0020482Y0049631D01*
X0020423Y0049534D01*
X0020361Y0049439D01*
X0020296Y0049346D01*
X0020228Y0049255D01*
X0020157Y0049167D01*
X0020082Y0049081D01*
X0020005Y0048998D01*
X0019925Y0048918D01*
X0019842Y0048841D01*
X0019756Y0048766D01*
X0019668Y0048695D01*
X0019577Y0048627D01*
X0019484Y0048562D01*
X0019389Y0048500D01*
X0019292Y0048441D01*
X0019193Y0048386D01*
X0019092Y0048335D01*
X0018989Y0048287D01*
X0018884Y0048243D01*
X0018779Y0048202D01*
X0018671Y0048165D01*
X0018563Y0048132D01*
X0018453Y0048103D01*
X0018343Y0048077D01*
X0018231Y0048055D01*
X0018119Y0048038D01*
X0018007Y0048024D01*
X0017894Y0048014D01*
X0017780Y0048008D01*
X0017667Y0048006D01*
X0017554Y0048008D01*
X0017440Y0048014D01*
X0017327Y0048024D01*
X0017215Y0048038D01*
X0017103Y0048055D01*
X0016991Y0048077D01*
X0016881Y0048103D01*
X0016771Y0048132D01*
X0016663Y0048165D01*
X0016555Y0048202D01*
X0016450Y0048243D01*
X0016345Y0048287D01*
X0016242Y0048335D01*
X0016141Y0048386D01*
X0016042Y0048441D01*
X0015945Y0048500D01*
X0015850Y0048562D01*
X0015757Y0048627D01*
X0015666Y0048695D01*
X0015578Y0048766D01*
X0015492Y0048841D01*
X0015409Y0048918D01*
X0015329Y0048998D01*
X0015252Y0049081D01*
X0015177Y0049167D01*
X0015106Y0049255D01*
X0015038Y0049346D01*
X0014973Y0049439D01*
X0014911Y0049534D01*
X0014852Y0049631D01*
X0014797Y0049730D01*
X0014746Y0049831D01*
X0014698Y0049934D01*
X0014654Y0050039D01*
X0014613Y0050144D01*
X0014576Y0050252D01*
X0014543Y0050360D01*
X0014514Y0050470D01*
X0014488Y0050580D01*
X0014466Y0050692D01*
X0014449Y0050804D01*
X0014435Y0050916D01*
X0014425Y0051029D01*
X0014419Y0051143D01*
X0014417Y0051256D01*
X0074417Y0051256D02*
X0074419Y0051369D01*
X0074425Y0051483D01*
X0074435Y0051596D01*
X0074449Y0051708D01*
X0074466Y0051820D01*
X0074488Y0051932D01*
X0074514Y0052042D01*
X0074543Y0052152D01*
X0074576Y0052260D01*
X0074613Y0052368D01*
X0074654Y0052473D01*
X0074698Y0052578D01*
X0074746Y0052681D01*
X0074797Y0052782D01*
X0074852Y0052881D01*
X0074911Y0052978D01*
X0074973Y0053073D01*
X0075038Y0053166D01*
X0075106Y0053257D01*
X0075177Y0053345D01*
X0075252Y0053431D01*
X0075329Y0053514D01*
X0075409Y0053594D01*
X0075492Y0053671D01*
X0075578Y0053746D01*
X0075666Y0053817D01*
X0075757Y0053885D01*
X0075850Y0053950D01*
X0075945Y0054012D01*
X0076042Y0054071D01*
X0076141Y0054126D01*
X0076242Y0054177D01*
X0076345Y0054225D01*
X0076450Y0054269D01*
X0076555Y0054310D01*
X0076663Y0054347D01*
X0076771Y0054380D01*
X0076881Y0054409D01*
X0076991Y0054435D01*
X0077103Y0054457D01*
X0077215Y0054474D01*
X0077327Y0054488D01*
X0077440Y0054498D01*
X0077554Y0054504D01*
X0077667Y0054506D01*
X0077780Y0054504D01*
X0077894Y0054498D01*
X0078007Y0054488D01*
X0078119Y0054474D01*
X0078231Y0054457D01*
X0078343Y0054435D01*
X0078453Y0054409D01*
X0078563Y0054380D01*
X0078671Y0054347D01*
X0078779Y0054310D01*
X0078884Y0054269D01*
X0078989Y0054225D01*
X0079092Y0054177D01*
X0079193Y0054126D01*
X0079292Y0054071D01*
X0079389Y0054012D01*
X0079484Y0053950D01*
X0079577Y0053885D01*
X0079668Y0053817D01*
X0079756Y0053746D01*
X0079842Y0053671D01*
X0079925Y0053594D01*
X0080005Y0053514D01*
X0080082Y0053431D01*
X0080157Y0053345D01*
X0080228Y0053257D01*
X0080296Y0053166D01*
X0080361Y0053073D01*
X0080423Y0052978D01*
X0080482Y0052881D01*
X0080537Y0052782D01*
X0080588Y0052681D01*
X0080636Y0052578D01*
X0080680Y0052473D01*
X0080721Y0052368D01*
X0080758Y0052260D01*
X0080791Y0052152D01*
X0080820Y0052042D01*
X0080846Y0051932D01*
X0080868Y0051820D01*
X0080885Y0051708D01*
X0080899Y0051596D01*
X0080909Y0051483D01*
X0080915Y0051369D01*
X0080917Y0051256D01*
X0080915Y0051143D01*
X0080909Y0051029D01*
X0080899Y0050916D01*
X0080885Y0050804D01*
X0080868Y0050692D01*
X0080846Y0050580D01*
X0080820Y0050470D01*
X0080791Y0050360D01*
X0080758Y0050252D01*
X0080721Y0050144D01*
X0080680Y0050039D01*
X0080636Y0049934D01*
X0080588Y0049831D01*
X0080537Y0049730D01*
X0080482Y0049631D01*
X0080423Y0049534D01*
X0080361Y0049439D01*
X0080296Y0049346D01*
X0080228Y0049255D01*
X0080157Y0049167D01*
X0080082Y0049081D01*
X0080005Y0048998D01*
X0079925Y0048918D01*
X0079842Y0048841D01*
X0079756Y0048766D01*
X0079668Y0048695D01*
X0079577Y0048627D01*
X0079484Y0048562D01*
X0079389Y0048500D01*
X0079292Y0048441D01*
X0079193Y0048386D01*
X0079092Y0048335D01*
X0078989Y0048287D01*
X0078884Y0048243D01*
X0078779Y0048202D01*
X0078671Y0048165D01*
X0078563Y0048132D01*
X0078453Y0048103D01*
X0078343Y0048077D01*
X0078231Y0048055D01*
X0078119Y0048038D01*
X0078007Y0048024D01*
X0077894Y0048014D01*
X0077780Y0048008D01*
X0077667Y0048006D01*
X0077554Y0048008D01*
X0077440Y0048014D01*
X0077327Y0048024D01*
X0077215Y0048038D01*
X0077103Y0048055D01*
X0076991Y0048077D01*
X0076881Y0048103D01*
X0076771Y0048132D01*
X0076663Y0048165D01*
X0076555Y0048202D01*
X0076450Y0048243D01*
X0076345Y0048287D01*
X0076242Y0048335D01*
X0076141Y0048386D01*
X0076042Y0048441D01*
X0075945Y0048500D01*
X0075850Y0048562D01*
X0075757Y0048627D01*
X0075666Y0048695D01*
X0075578Y0048766D01*
X0075492Y0048841D01*
X0075409Y0048918D01*
X0075329Y0048998D01*
X0075252Y0049081D01*
X0075177Y0049167D01*
X0075106Y0049255D01*
X0075038Y0049346D01*
X0074973Y0049439D01*
X0074911Y0049534D01*
X0074852Y0049631D01*
X0074797Y0049730D01*
X0074746Y0049831D01*
X0074698Y0049934D01*
X0074654Y0050039D01*
X0074613Y0050144D01*
X0074576Y0050252D01*
X0074543Y0050360D01*
X0074514Y0050470D01*
X0074488Y0050580D01*
X0074466Y0050692D01*
X0074449Y0050804D01*
X0074435Y0050916D01*
X0074425Y0051029D01*
X0074419Y0051143D01*
X0074417Y0051256D01*
X0202667Y0011256D02*
X0202669Y0011397D01*
X0202675Y0011538D01*
X0202685Y0011678D01*
X0202699Y0011818D01*
X0202717Y0011958D01*
X0202738Y0012097D01*
X0202764Y0012236D01*
X0202793Y0012374D01*
X0202827Y0012510D01*
X0202864Y0012646D01*
X0202905Y0012781D01*
X0202950Y0012915D01*
X0202999Y0013047D01*
X0203051Y0013178D01*
X0203107Y0013307D01*
X0203167Y0013434D01*
X0203230Y0013560D01*
X0203296Y0013684D01*
X0203367Y0013807D01*
X0203440Y0013927D01*
X0203517Y0014045D01*
X0203597Y0014161D01*
X0203681Y0014274D01*
X0203767Y0014385D01*
X0203857Y0014494D01*
X0203950Y0014600D01*
X0204045Y0014703D01*
X0204144Y0014804D01*
X0204245Y0014902D01*
X0204349Y0014997D01*
X0204456Y0015089D01*
X0204565Y0015178D01*
X0204677Y0015263D01*
X0204791Y0015346D01*
X0204907Y0015426D01*
X0205026Y0015502D01*
X0205147Y0015574D01*
X0205269Y0015644D01*
X0205394Y0015709D01*
X0205520Y0015772D01*
X0205648Y0015830D01*
X0205778Y0015885D01*
X0205909Y0015937D01*
X0206042Y0015984D01*
X0206176Y0016028D01*
X0206311Y0016069D01*
X0206447Y0016105D01*
X0206584Y0016137D01*
X0206722Y0016166D01*
X0206860Y0016191D01*
X0207000Y0016211D01*
X0207140Y0016228D01*
X0207280Y0016241D01*
X0207421Y0016250D01*
X0207561Y0016255D01*
X0207702Y0016256D01*
X0207843Y0016253D01*
X0207984Y0016246D01*
X0208124Y0016235D01*
X0208264Y0016220D01*
X0208404Y0016201D01*
X0208543Y0016179D01*
X0208681Y0016152D01*
X0208819Y0016122D01*
X0208955Y0016087D01*
X0209091Y0016049D01*
X0209225Y0016007D01*
X0209359Y0015961D01*
X0209491Y0015912D01*
X0209621Y0015858D01*
X0209750Y0015801D01*
X0209877Y0015741D01*
X0210003Y0015677D01*
X0210126Y0015609D01*
X0210248Y0015538D01*
X0210368Y0015464D01*
X0210485Y0015386D01*
X0210600Y0015305D01*
X0210713Y0015221D01*
X0210824Y0015134D01*
X0210932Y0015043D01*
X0211037Y0014950D01*
X0211140Y0014853D01*
X0211240Y0014754D01*
X0211337Y0014652D01*
X0211431Y0014547D01*
X0211522Y0014440D01*
X0211610Y0014330D01*
X0211695Y0014218D01*
X0211777Y0014103D01*
X0211856Y0013986D01*
X0211931Y0013867D01*
X0212003Y0013746D01*
X0212071Y0013623D01*
X0212136Y0013498D01*
X0212198Y0013371D01*
X0212255Y0013242D01*
X0212310Y0013112D01*
X0212360Y0012981D01*
X0212407Y0012848D01*
X0212450Y0012714D01*
X0212489Y0012578D01*
X0212524Y0012442D01*
X0212556Y0012305D01*
X0212583Y0012167D01*
X0212607Y0012028D01*
X0212627Y0011888D01*
X0212643Y0011748D01*
X0212655Y0011608D01*
X0212663Y0011467D01*
X0212667Y0011326D01*
X0212667Y0011186D01*
X0212663Y0011045D01*
X0212655Y0010904D01*
X0212643Y0010764D01*
X0212627Y0010624D01*
X0212607Y0010484D01*
X0212583Y0010345D01*
X0212556Y0010207D01*
X0212524Y0010070D01*
X0212489Y0009934D01*
X0212450Y0009798D01*
X0212407Y0009664D01*
X0212360Y0009531D01*
X0212310Y0009400D01*
X0212255Y0009270D01*
X0212198Y0009141D01*
X0212136Y0009014D01*
X0212071Y0008889D01*
X0212003Y0008766D01*
X0211931Y0008645D01*
X0211856Y0008526D01*
X0211777Y0008409D01*
X0211695Y0008294D01*
X0211610Y0008182D01*
X0211522Y0008072D01*
X0211431Y0007965D01*
X0211337Y0007860D01*
X0211240Y0007758D01*
X0211140Y0007659D01*
X0211037Y0007562D01*
X0210932Y0007469D01*
X0210824Y0007378D01*
X0210713Y0007291D01*
X0210600Y0007207D01*
X0210485Y0007126D01*
X0210368Y0007048D01*
X0210248Y0006974D01*
X0210126Y0006903D01*
X0210003Y0006835D01*
X0209877Y0006771D01*
X0209750Y0006711D01*
X0209621Y0006654D01*
X0209491Y0006600D01*
X0209359Y0006551D01*
X0209225Y0006505D01*
X0209091Y0006463D01*
X0208955Y0006425D01*
X0208819Y0006390D01*
X0208681Y0006360D01*
X0208543Y0006333D01*
X0208404Y0006311D01*
X0208264Y0006292D01*
X0208124Y0006277D01*
X0207984Y0006266D01*
X0207843Y0006259D01*
X0207702Y0006256D01*
X0207561Y0006257D01*
X0207421Y0006262D01*
X0207280Y0006271D01*
X0207140Y0006284D01*
X0207000Y0006301D01*
X0206860Y0006321D01*
X0206722Y0006346D01*
X0206584Y0006375D01*
X0206447Y0006407D01*
X0206311Y0006443D01*
X0206176Y0006484D01*
X0206042Y0006528D01*
X0205909Y0006575D01*
X0205778Y0006627D01*
X0205648Y0006682D01*
X0205520Y0006740D01*
X0205394Y0006803D01*
X0205269Y0006868D01*
X0205147Y0006938D01*
X0205026Y0007010D01*
X0204907Y0007086D01*
X0204791Y0007166D01*
X0204677Y0007249D01*
X0204565Y0007334D01*
X0204456Y0007423D01*
X0204349Y0007515D01*
X0204245Y0007610D01*
X0204144Y0007708D01*
X0204045Y0007809D01*
X0203950Y0007912D01*
X0203857Y0008018D01*
X0203767Y0008127D01*
X0203681Y0008238D01*
X0203597Y0008351D01*
X0203517Y0008467D01*
X0203440Y0008585D01*
X0203367Y0008705D01*
X0203296Y0008828D01*
X0203230Y0008952D01*
X0203167Y0009078D01*
X0203107Y0009205D01*
X0203051Y0009334D01*
X0202999Y0009465D01*
X0202950Y0009597D01*
X0202905Y0009731D01*
X0202864Y0009866D01*
X0202827Y0010002D01*
X0202793Y0010138D01*
X0202764Y0010276D01*
X0202738Y0010415D01*
X0202717Y0010554D01*
X0202699Y0010694D01*
X0202685Y0010834D01*
X0202675Y0010974D01*
X0202669Y0011115D01*
X0202667Y0011256D01*
X0074417Y0211256D02*
X0074419Y0211369D01*
X0074425Y0211483D01*
X0074435Y0211596D01*
X0074449Y0211708D01*
X0074466Y0211820D01*
X0074488Y0211932D01*
X0074514Y0212042D01*
X0074543Y0212152D01*
X0074576Y0212260D01*
X0074613Y0212368D01*
X0074654Y0212473D01*
X0074698Y0212578D01*
X0074746Y0212681D01*
X0074797Y0212782D01*
X0074852Y0212881D01*
X0074911Y0212978D01*
X0074973Y0213073D01*
X0075038Y0213166D01*
X0075106Y0213257D01*
X0075177Y0213345D01*
X0075252Y0213431D01*
X0075329Y0213514D01*
X0075409Y0213594D01*
X0075492Y0213671D01*
X0075578Y0213746D01*
X0075666Y0213817D01*
X0075757Y0213885D01*
X0075850Y0213950D01*
X0075945Y0214012D01*
X0076042Y0214071D01*
X0076141Y0214126D01*
X0076242Y0214177D01*
X0076345Y0214225D01*
X0076450Y0214269D01*
X0076555Y0214310D01*
X0076663Y0214347D01*
X0076771Y0214380D01*
X0076881Y0214409D01*
X0076991Y0214435D01*
X0077103Y0214457D01*
X0077215Y0214474D01*
X0077327Y0214488D01*
X0077440Y0214498D01*
X0077554Y0214504D01*
X0077667Y0214506D01*
X0077780Y0214504D01*
X0077894Y0214498D01*
X0078007Y0214488D01*
X0078119Y0214474D01*
X0078231Y0214457D01*
X0078343Y0214435D01*
X0078453Y0214409D01*
X0078563Y0214380D01*
X0078671Y0214347D01*
X0078779Y0214310D01*
X0078884Y0214269D01*
X0078989Y0214225D01*
X0079092Y0214177D01*
X0079193Y0214126D01*
X0079292Y0214071D01*
X0079389Y0214012D01*
X0079484Y0213950D01*
X0079577Y0213885D01*
X0079668Y0213817D01*
X0079756Y0213746D01*
X0079842Y0213671D01*
X0079925Y0213594D01*
X0080005Y0213514D01*
X0080082Y0213431D01*
X0080157Y0213345D01*
X0080228Y0213257D01*
X0080296Y0213166D01*
X0080361Y0213073D01*
X0080423Y0212978D01*
X0080482Y0212881D01*
X0080537Y0212782D01*
X0080588Y0212681D01*
X0080636Y0212578D01*
X0080680Y0212473D01*
X0080721Y0212368D01*
X0080758Y0212260D01*
X0080791Y0212152D01*
X0080820Y0212042D01*
X0080846Y0211932D01*
X0080868Y0211820D01*
X0080885Y0211708D01*
X0080899Y0211596D01*
X0080909Y0211483D01*
X0080915Y0211369D01*
X0080917Y0211256D01*
X0080915Y0211143D01*
X0080909Y0211029D01*
X0080899Y0210916D01*
X0080885Y0210804D01*
X0080868Y0210692D01*
X0080846Y0210580D01*
X0080820Y0210470D01*
X0080791Y0210360D01*
X0080758Y0210252D01*
X0080721Y0210144D01*
X0080680Y0210039D01*
X0080636Y0209934D01*
X0080588Y0209831D01*
X0080537Y0209730D01*
X0080482Y0209631D01*
X0080423Y0209534D01*
X0080361Y0209439D01*
X0080296Y0209346D01*
X0080228Y0209255D01*
X0080157Y0209167D01*
X0080082Y0209081D01*
X0080005Y0208998D01*
X0079925Y0208918D01*
X0079842Y0208841D01*
X0079756Y0208766D01*
X0079668Y0208695D01*
X0079577Y0208627D01*
X0079484Y0208562D01*
X0079389Y0208500D01*
X0079292Y0208441D01*
X0079193Y0208386D01*
X0079092Y0208335D01*
X0078989Y0208287D01*
X0078884Y0208243D01*
X0078779Y0208202D01*
X0078671Y0208165D01*
X0078563Y0208132D01*
X0078453Y0208103D01*
X0078343Y0208077D01*
X0078231Y0208055D01*
X0078119Y0208038D01*
X0078007Y0208024D01*
X0077894Y0208014D01*
X0077780Y0208008D01*
X0077667Y0208006D01*
X0077554Y0208008D01*
X0077440Y0208014D01*
X0077327Y0208024D01*
X0077215Y0208038D01*
X0077103Y0208055D01*
X0076991Y0208077D01*
X0076881Y0208103D01*
X0076771Y0208132D01*
X0076663Y0208165D01*
X0076555Y0208202D01*
X0076450Y0208243D01*
X0076345Y0208287D01*
X0076242Y0208335D01*
X0076141Y0208386D01*
X0076042Y0208441D01*
X0075945Y0208500D01*
X0075850Y0208562D01*
X0075757Y0208627D01*
X0075666Y0208695D01*
X0075578Y0208766D01*
X0075492Y0208841D01*
X0075409Y0208918D01*
X0075329Y0208998D01*
X0075252Y0209081D01*
X0075177Y0209167D01*
X0075106Y0209255D01*
X0075038Y0209346D01*
X0074973Y0209439D01*
X0074911Y0209534D01*
X0074852Y0209631D01*
X0074797Y0209730D01*
X0074746Y0209831D01*
X0074698Y0209934D01*
X0074654Y0210039D01*
X0074613Y0210144D01*
X0074576Y0210252D01*
X0074543Y0210360D01*
X0074514Y0210470D01*
X0074488Y0210580D01*
X0074466Y0210692D01*
X0074449Y0210804D01*
X0074435Y0210916D01*
X0074425Y0211029D01*
X0074419Y0211143D01*
X0074417Y0211256D01*
X0032667Y0211256D02*
X0032669Y0211397D01*
X0032675Y0211538D01*
X0032685Y0211678D01*
X0032699Y0211818D01*
X0032717Y0211958D01*
X0032738Y0212097D01*
X0032764Y0212236D01*
X0032793Y0212374D01*
X0032827Y0212510D01*
X0032864Y0212646D01*
X0032905Y0212781D01*
X0032950Y0212915D01*
X0032999Y0213047D01*
X0033051Y0213178D01*
X0033107Y0213307D01*
X0033167Y0213434D01*
X0033230Y0213560D01*
X0033296Y0213684D01*
X0033367Y0213807D01*
X0033440Y0213927D01*
X0033517Y0214045D01*
X0033597Y0214161D01*
X0033681Y0214274D01*
X0033767Y0214385D01*
X0033857Y0214494D01*
X0033950Y0214600D01*
X0034045Y0214703D01*
X0034144Y0214804D01*
X0034245Y0214902D01*
X0034349Y0214997D01*
X0034456Y0215089D01*
X0034565Y0215178D01*
X0034677Y0215263D01*
X0034791Y0215346D01*
X0034907Y0215426D01*
X0035026Y0215502D01*
X0035147Y0215574D01*
X0035269Y0215644D01*
X0035394Y0215709D01*
X0035520Y0215772D01*
X0035648Y0215830D01*
X0035778Y0215885D01*
X0035909Y0215937D01*
X0036042Y0215984D01*
X0036176Y0216028D01*
X0036311Y0216069D01*
X0036447Y0216105D01*
X0036584Y0216137D01*
X0036722Y0216166D01*
X0036860Y0216191D01*
X0037000Y0216211D01*
X0037140Y0216228D01*
X0037280Y0216241D01*
X0037421Y0216250D01*
X0037561Y0216255D01*
X0037702Y0216256D01*
X0037843Y0216253D01*
X0037984Y0216246D01*
X0038124Y0216235D01*
X0038264Y0216220D01*
X0038404Y0216201D01*
X0038543Y0216179D01*
X0038681Y0216152D01*
X0038819Y0216122D01*
X0038955Y0216087D01*
X0039091Y0216049D01*
X0039225Y0216007D01*
X0039359Y0215961D01*
X0039491Y0215912D01*
X0039621Y0215858D01*
X0039750Y0215801D01*
X0039877Y0215741D01*
X0040003Y0215677D01*
X0040126Y0215609D01*
X0040248Y0215538D01*
X0040368Y0215464D01*
X0040485Y0215386D01*
X0040600Y0215305D01*
X0040713Y0215221D01*
X0040824Y0215134D01*
X0040932Y0215043D01*
X0041037Y0214950D01*
X0041140Y0214853D01*
X0041240Y0214754D01*
X0041337Y0214652D01*
X0041431Y0214547D01*
X0041522Y0214440D01*
X0041610Y0214330D01*
X0041695Y0214218D01*
X0041777Y0214103D01*
X0041856Y0213986D01*
X0041931Y0213867D01*
X0042003Y0213746D01*
X0042071Y0213623D01*
X0042136Y0213498D01*
X0042198Y0213371D01*
X0042255Y0213242D01*
X0042310Y0213112D01*
X0042360Y0212981D01*
X0042407Y0212848D01*
X0042450Y0212714D01*
X0042489Y0212578D01*
X0042524Y0212442D01*
X0042556Y0212305D01*
X0042583Y0212167D01*
X0042607Y0212028D01*
X0042627Y0211888D01*
X0042643Y0211748D01*
X0042655Y0211608D01*
X0042663Y0211467D01*
X0042667Y0211326D01*
X0042667Y0211186D01*
X0042663Y0211045D01*
X0042655Y0210904D01*
X0042643Y0210764D01*
X0042627Y0210624D01*
X0042607Y0210484D01*
X0042583Y0210345D01*
X0042556Y0210207D01*
X0042524Y0210070D01*
X0042489Y0209934D01*
X0042450Y0209798D01*
X0042407Y0209664D01*
X0042360Y0209531D01*
X0042310Y0209400D01*
X0042255Y0209270D01*
X0042198Y0209141D01*
X0042136Y0209014D01*
X0042071Y0208889D01*
X0042003Y0208766D01*
X0041931Y0208645D01*
X0041856Y0208526D01*
X0041777Y0208409D01*
X0041695Y0208294D01*
X0041610Y0208182D01*
X0041522Y0208072D01*
X0041431Y0207965D01*
X0041337Y0207860D01*
X0041240Y0207758D01*
X0041140Y0207659D01*
X0041037Y0207562D01*
X0040932Y0207469D01*
X0040824Y0207378D01*
X0040713Y0207291D01*
X0040600Y0207207D01*
X0040485Y0207126D01*
X0040368Y0207048D01*
X0040248Y0206974D01*
X0040126Y0206903D01*
X0040003Y0206835D01*
X0039877Y0206771D01*
X0039750Y0206711D01*
X0039621Y0206654D01*
X0039491Y0206600D01*
X0039359Y0206551D01*
X0039225Y0206505D01*
X0039091Y0206463D01*
X0038955Y0206425D01*
X0038819Y0206390D01*
X0038681Y0206360D01*
X0038543Y0206333D01*
X0038404Y0206311D01*
X0038264Y0206292D01*
X0038124Y0206277D01*
X0037984Y0206266D01*
X0037843Y0206259D01*
X0037702Y0206256D01*
X0037561Y0206257D01*
X0037421Y0206262D01*
X0037280Y0206271D01*
X0037140Y0206284D01*
X0037000Y0206301D01*
X0036860Y0206321D01*
X0036722Y0206346D01*
X0036584Y0206375D01*
X0036447Y0206407D01*
X0036311Y0206443D01*
X0036176Y0206484D01*
X0036042Y0206528D01*
X0035909Y0206575D01*
X0035778Y0206627D01*
X0035648Y0206682D01*
X0035520Y0206740D01*
X0035394Y0206803D01*
X0035269Y0206868D01*
X0035147Y0206938D01*
X0035026Y0207010D01*
X0034907Y0207086D01*
X0034791Y0207166D01*
X0034677Y0207249D01*
X0034565Y0207334D01*
X0034456Y0207423D01*
X0034349Y0207515D01*
X0034245Y0207610D01*
X0034144Y0207708D01*
X0034045Y0207809D01*
X0033950Y0207912D01*
X0033857Y0208018D01*
X0033767Y0208127D01*
X0033681Y0208238D01*
X0033597Y0208351D01*
X0033517Y0208467D01*
X0033440Y0208585D01*
X0033367Y0208705D01*
X0033296Y0208828D01*
X0033230Y0208952D01*
X0033167Y0209078D01*
X0033107Y0209205D01*
X0033051Y0209334D01*
X0032999Y0209465D01*
X0032950Y0209597D01*
X0032905Y0209731D01*
X0032864Y0209866D01*
X0032827Y0210002D01*
X0032793Y0210138D01*
X0032764Y0210276D01*
X0032738Y0210415D01*
X0032717Y0210554D01*
X0032699Y0210694D01*
X0032685Y0210834D01*
X0032675Y0210974D01*
X0032669Y0211115D01*
X0032667Y0211256D01*
X0014417Y0211256D02*
X0014419Y0211369D01*
X0014425Y0211483D01*
X0014435Y0211596D01*
X0014449Y0211708D01*
X0014466Y0211820D01*
X0014488Y0211932D01*
X0014514Y0212042D01*
X0014543Y0212152D01*
X0014576Y0212260D01*
X0014613Y0212368D01*
X0014654Y0212473D01*
X0014698Y0212578D01*
X0014746Y0212681D01*
X0014797Y0212782D01*
X0014852Y0212881D01*
X0014911Y0212978D01*
X0014973Y0213073D01*
X0015038Y0213166D01*
X0015106Y0213257D01*
X0015177Y0213345D01*
X0015252Y0213431D01*
X0015329Y0213514D01*
X0015409Y0213594D01*
X0015492Y0213671D01*
X0015578Y0213746D01*
X0015666Y0213817D01*
X0015757Y0213885D01*
X0015850Y0213950D01*
X0015945Y0214012D01*
X0016042Y0214071D01*
X0016141Y0214126D01*
X0016242Y0214177D01*
X0016345Y0214225D01*
X0016450Y0214269D01*
X0016555Y0214310D01*
X0016663Y0214347D01*
X0016771Y0214380D01*
X0016881Y0214409D01*
X0016991Y0214435D01*
X0017103Y0214457D01*
X0017215Y0214474D01*
X0017327Y0214488D01*
X0017440Y0214498D01*
X0017554Y0214504D01*
X0017667Y0214506D01*
X0017780Y0214504D01*
X0017894Y0214498D01*
X0018007Y0214488D01*
X0018119Y0214474D01*
X0018231Y0214457D01*
X0018343Y0214435D01*
X0018453Y0214409D01*
X0018563Y0214380D01*
X0018671Y0214347D01*
X0018779Y0214310D01*
X0018884Y0214269D01*
X0018989Y0214225D01*
X0019092Y0214177D01*
X0019193Y0214126D01*
X0019292Y0214071D01*
X0019389Y0214012D01*
X0019484Y0213950D01*
X0019577Y0213885D01*
X0019668Y0213817D01*
X0019756Y0213746D01*
X0019842Y0213671D01*
X0019925Y0213594D01*
X0020005Y0213514D01*
X0020082Y0213431D01*
X0020157Y0213345D01*
X0020228Y0213257D01*
X0020296Y0213166D01*
X0020361Y0213073D01*
X0020423Y0212978D01*
X0020482Y0212881D01*
X0020537Y0212782D01*
X0020588Y0212681D01*
X0020636Y0212578D01*
X0020680Y0212473D01*
X0020721Y0212368D01*
X0020758Y0212260D01*
X0020791Y0212152D01*
X0020820Y0212042D01*
X0020846Y0211932D01*
X0020868Y0211820D01*
X0020885Y0211708D01*
X0020899Y0211596D01*
X0020909Y0211483D01*
X0020915Y0211369D01*
X0020917Y0211256D01*
X0020915Y0211143D01*
X0020909Y0211029D01*
X0020899Y0210916D01*
X0020885Y0210804D01*
X0020868Y0210692D01*
X0020846Y0210580D01*
X0020820Y0210470D01*
X0020791Y0210360D01*
X0020758Y0210252D01*
X0020721Y0210144D01*
X0020680Y0210039D01*
X0020636Y0209934D01*
X0020588Y0209831D01*
X0020537Y0209730D01*
X0020482Y0209631D01*
X0020423Y0209534D01*
X0020361Y0209439D01*
X0020296Y0209346D01*
X0020228Y0209255D01*
X0020157Y0209167D01*
X0020082Y0209081D01*
X0020005Y0208998D01*
X0019925Y0208918D01*
X0019842Y0208841D01*
X0019756Y0208766D01*
X0019668Y0208695D01*
X0019577Y0208627D01*
X0019484Y0208562D01*
X0019389Y0208500D01*
X0019292Y0208441D01*
X0019193Y0208386D01*
X0019092Y0208335D01*
X0018989Y0208287D01*
X0018884Y0208243D01*
X0018779Y0208202D01*
X0018671Y0208165D01*
X0018563Y0208132D01*
X0018453Y0208103D01*
X0018343Y0208077D01*
X0018231Y0208055D01*
X0018119Y0208038D01*
X0018007Y0208024D01*
X0017894Y0208014D01*
X0017780Y0208008D01*
X0017667Y0208006D01*
X0017554Y0208008D01*
X0017440Y0208014D01*
X0017327Y0208024D01*
X0017215Y0208038D01*
X0017103Y0208055D01*
X0016991Y0208077D01*
X0016881Y0208103D01*
X0016771Y0208132D01*
X0016663Y0208165D01*
X0016555Y0208202D01*
X0016450Y0208243D01*
X0016345Y0208287D01*
X0016242Y0208335D01*
X0016141Y0208386D01*
X0016042Y0208441D01*
X0015945Y0208500D01*
X0015850Y0208562D01*
X0015757Y0208627D01*
X0015666Y0208695D01*
X0015578Y0208766D01*
X0015492Y0208841D01*
X0015409Y0208918D01*
X0015329Y0208998D01*
X0015252Y0209081D01*
X0015177Y0209167D01*
X0015106Y0209255D01*
X0015038Y0209346D01*
X0014973Y0209439D01*
X0014911Y0209534D01*
X0014852Y0209631D01*
X0014797Y0209730D01*
X0014746Y0209831D01*
X0014698Y0209934D01*
X0014654Y0210039D01*
X0014613Y0210144D01*
X0014576Y0210252D01*
X0014543Y0210360D01*
X0014514Y0210470D01*
X0014488Y0210580D01*
X0014466Y0210692D01*
X0014449Y0210804D01*
X0014435Y0210916D01*
X0014425Y0211029D01*
X0014419Y0211143D01*
X0014417Y0211256D01*
X0202667Y0216256D02*
X0202669Y0216397D01*
X0202675Y0216538D01*
X0202685Y0216678D01*
X0202699Y0216818D01*
X0202717Y0216958D01*
X0202738Y0217097D01*
X0202764Y0217236D01*
X0202793Y0217374D01*
X0202827Y0217510D01*
X0202864Y0217646D01*
X0202905Y0217781D01*
X0202950Y0217915D01*
X0202999Y0218047D01*
X0203051Y0218178D01*
X0203107Y0218307D01*
X0203167Y0218434D01*
X0203230Y0218560D01*
X0203296Y0218684D01*
X0203367Y0218807D01*
X0203440Y0218927D01*
X0203517Y0219045D01*
X0203597Y0219161D01*
X0203681Y0219274D01*
X0203767Y0219385D01*
X0203857Y0219494D01*
X0203950Y0219600D01*
X0204045Y0219703D01*
X0204144Y0219804D01*
X0204245Y0219902D01*
X0204349Y0219997D01*
X0204456Y0220089D01*
X0204565Y0220178D01*
X0204677Y0220263D01*
X0204791Y0220346D01*
X0204907Y0220426D01*
X0205026Y0220502D01*
X0205147Y0220574D01*
X0205269Y0220644D01*
X0205394Y0220709D01*
X0205520Y0220772D01*
X0205648Y0220830D01*
X0205778Y0220885D01*
X0205909Y0220937D01*
X0206042Y0220984D01*
X0206176Y0221028D01*
X0206311Y0221069D01*
X0206447Y0221105D01*
X0206584Y0221137D01*
X0206722Y0221166D01*
X0206860Y0221191D01*
X0207000Y0221211D01*
X0207140Y0221228D01*
X0207280Y0221241D01*
X0207421Y0221250D01*
X0207561Y0221255D01*
X0207702Y0221256D01*
X0207843Y0221253D01*
X0207984Y0221246D01*
X0208124Y0221235D01*
X0208264Y0221220D01*
X0208404Y0221201D01*
X0208543Y0221179D01*
X0208681Y0221152D01*
X0208819Y0221122D01*
X0208955Y0221087D01*
X0209091Y0221049D01*
X0209225Y0221007D01*
X0209359Y0220961D01*
X0209491Y0220912D01*
X0209621Y0220858D01*
X0209750Y0220801D01*
X0209877Y0220741D01*
X0210003Y0220677D01*
X0210126Y0220609D01*
X0210248Y0220538D01*
X0210368Y0220464D01*
X0210485Y0220386D01*
X0210600Y0220305D01*
X0210713Y0220221D01*
X0210824Y0220134D01*
X0210932Y0220043D01*
X0211037Y0219950D01*
X0211140Y0219853D01*
X0211240Y0219754D01*
X0211337Y0219652D01*
X0211431Y0219547D01*
X0211522Y0219440D01*
X0211610Y0219330D01*
X0211695Y0219218D01*
X0211777Y0219103D01*
X0211856Y0218986D01*
X0211931Y0218867D01*
X0212003Y0218746D01*
X0212071Y0218623D01*
X0212136Y0218498D01*
X0212198Y0218371D01*
X0212255Y0218242D01*
X0212310Y0218112D01*
X0212360Y0217981D01*
X0212407Y0217848D01*
X0212450Y0217714D01*
X0212489Y0217578D01*
X0212524Y0217442D01*
X0212556Y0217305D01*
X0212583Y0217167D01*
X0212607Y0217028D01*
X0212627Y0216888D01*
X0212643Y0216748D01*
X0212655Y0216608D01*
X0212663Y0216467D01*
X0212667Y0216326D01*
X0212667Y0216186D01*
X0212663Y0216045D01*
X0212655Y0215904D01*
X0212643Y0215764D01*
X0212627Y0215624D01*
X0212607Y0215484D01*
X0212583Y0215345D01*
X0212556Y0215207D01*
X0212524Y0215070D01*
X0212489Y0214934D01*
X0212450Y0214798D01*
X0212407Y0214664D01*
X0212360Y0214531D01*
X0212310Y0214400D01*
X0212255Y0214270D01*
X0212198Y0214141D01*
X0212136Y0214014D01*
X0212071Y0213889D01*
X0212003Y0213766D01*
X0211931Y0213645D01*
X0211856Y0213526D01*
X0211777Y0213409D01*
X0211695Y0213294D01*
X0211610Y0213182D01*
X0211522Y0213072D01*
X0211431Y0212965D01*
X0211337Y0212860D01*
X0211240Y0212758D01*
X0211140Y0212659D01*
X0211037Y0212562D01*
X0210932Y0212469D01*
X0210824Y0212378D01*
X0210713Y0212291D01*
X0210600Y0212207D01*
X0210485Y0212126D01*
X0210368Y0212048D01*
X0210248Y0211974D01*
X0210126Y0211903D01*
X0210003Y0211835D01*
X0209877Y0211771D01*
X0209750Y0211711D01*
X0209621Y0211654D01*
X0209491Y0211600D01*
X0209359Y0211551D01*
X0209225Y0211505D01*
X0209091Y0211463D01*
X0208955Y0211425D01*
X0208819Y0211390D01*
X0208681Y0211360D01*
X0208543Y0211333D01*
X0208404Y0211311D01*
X0208264Y0211292D01*
X0208124Y0211277D01*
X0207984Y0211266D01*
X0207843Y0211259D01*
X0207702Y0211256D01*
X0207561Y0211257D01*
X0207421Y0211262D01*
X0207280Y0211271D01*
X0207140Y0211284D01*
X0207000Y0211301D01*
X0206860Y0211321D01*
X0206722Y0211346D01*
X0206584Y0211375D01*
X0206447Y0211407D01*
X0206311Y0211443D01*
X0206176Y0211484D01*
X0206042Y0211528D01*
X0205909Y0211575D01*
X0205778Y0211627D01*
X0205648Y0211682D01*
X0205520Y0211740D01*
X0205394Y0211803D01*
X0205269Y0211868D01*
X0205147Y0211938D01*
X0205026Y0212010D01*
X0204907Y0212086D01*
X0204791Y0212166D01*
X0204677Y0212249D01*
X0204565Y0212334D01*
X0204456Y0212423D01*
X0204349Y0212515D01*
X0204245Y0212610D01*
X0204144Y0212708D01*
X0204045Y0212809D01*
X0203950Y0212912D01*
X0203857Y0213018D01*
X0203767Y0213127D01*
X0203681Y0213238D01*
X0203597Y0213351D01*
X0203517Y0213467D01*
X0203440Y0213585D01*
X0203367Y0213705D01*
X0203296Y0213828D01*
X0203230Y0213952D01*
X0203167Y0214078D01*
X0203107Y0214205D01*
X0203051Y0214334D01*
X0202999Y0214465D01*
X0202950Y0214597D01*
X0202905Y0214731D01*
X0202864Y0214866D01*
X0202827Y0215002D01*
X0202793Y0215138D01*
X0202764Y0215276D01*
X0202738Y0215415D01*
X0202717Y0215554D01*
X0202699Y0215694D01*
X0202685Y0215834D01*
X0202675Y0215974D01*
X0202669Y0216115D01*
X0202667Y0216256D01*
D11*
X0055344Y0082378D03*
X0052785Y0082378D03*
X0050226Y0082378D03*
X0047667Y0082378D03*
X0045108Y0082378D03*
X0042549Y0082378D03*
X0039989Y0082378D03*
X0039989Y0060134D03*
X0042549Y0060134D03*
X0045108Y0060134D03*
X0047667Y0060134D03*
X0050226Y0060134D03*
X0052785Y0060134D03*
X0055344Y0060134D03*
D12*
X0062667Y0070657D03*
X0062667Y0081854D03*
M02*
